<svg xmlns="http://www.w3.org/2000/svg" viewBox="0 0 500 500"><g id="freepik--background-complete--inject-3"><path d="M261.46939,406.9388l-8.5463-131.3019,.2891-.0206,9.7057,131.2215c-.4831,.036-.9654,.0694-1.4485,.101Zm-26.5202-.0907l-1.2618-.0977,10.4929-131.1597,.4745,.0359-9.7056,131.2215Zm54.6804-3.9346l-28.7077-128.4099,.6228-.1396,29.1617,128.3071-1.0768,.2424Zm-82.4505-.2073l-1.2387-.2852,29.8992-128.1375,.4583,.1053-29.1188,128.3174Zm109.2153-7.8596l-47.2607-122.799,.3444-.1337,48.1961,122.4341c-.4249,.1679-.8515,.3341-1.2798,.4986Zm-136.1248-.4129l-1.1805-.4669,48.7341-122.2216,.4446,.1757-47.9982,122.5128Zm161.6277-11.6829l-65.2818-114.2428,.4387-.2519,65.9114,113.8814-1.0683,.6133Zm-187.0267-.5508c-.3905-.2253-.7807-.4532-1.1697-.6818l66.697-113.4223,.3379,.1971-65.8652,113.907Zm210.17989-15.0322l-81.2931-103.463,.25261-.2004,82.14979,102.7845c-.3683,.2947-.7384,.5876-1.1093,.8789Zm-233.32019-.7496c-.409-.3255-.8163-.6527-1.222-.9825l83.0459-102.0615,.13581,.1087-81.9597,102.9353Zm254.09199-18.2627l-95.8955-90.096,.3041-.3254,96.4763,89.474-.8849,.9474Zm-274.69579-.8344l-.8253-.8934,96.8487-89.0697,.3552,.3846-96.3786,89.5785Zm292.26119-20.8505l-108.0306-75.1185,.1601-.2322,108.6987,74.1472c-.2741,.4025-.5498,.8026-.8282,1.2035Zm-309.76269-1.0373c-.26-.3795-.5188-.7616-.7753-1.1428l109.14979-73.4806,.2,.2947-108.57449,74.3287Zm324.12149-23.3931l-118.2262-57.7562,.269-.5517,118.4524,57.2902-.4952,1.0177Zm-338.21539-.9234c-.2017-.4173-.4022-.8353-.6008-1.2542l118.9097-56.3358,.14869,.31-118.45759,57.28Zm348.62009-25.0438l-125.4305-39.7515,.0951-.3075,125.76121,38.6961c-.14041,.454-.28181,.9089-.42581,1.3629Zm-358.94559-1.1856c-.1315-.4258-.2613-.8507-.3897-1.2764l125.9981-37.9165,.1187,.388-125.7271,38.8049Zm365.41759-26.3819l-130.02219-20.1824,.07279-.4814,130.1387,19.4234-.1893,1.2404Zm-371.67479-1.0177c-.0673-.4454-.1324-.8909-.1962-1.3363l130.2492-18.6627,.0564,.3855-130.1094,19.6135Zm373.92599-26.6923l-131.57439-1.1677,.00089-.5431h131.5795v.2566c0,.4853-.0017,.9705-.006,1.4542Zm-244.44789-1.3262H60.847l.003-1.2121,131.5779,.6827-.0014,.5294Zm112.2791-8.4156l-.0411-.2775,130.0803-19.8029c.0737,.4814,.1448,.9629,.21421,1.4452l-130.25341,18.6352Zm-111.655-.1957l-130.1703-19.2054c.0672-.4553,.1362-.9101,.2068-1.3641l130.0179,20.2123-.0544,.3572Zm109.8989-7.753l-.1843-.6005,125.7099-38.8596,.3272,1.0647-125.8528,38.3954Zm-108.0674-.3422l-125.7775-38.6412,.3864-1.2426,125.5243,39.4558-.1332,.428Zm105.0469-7.5217l-.22621-.4721,118.4199-57.357,.5259,1.0927-118.71959,56.7364Zm-102.0093-.2532l-118.5277-57.1334,.5319-1.0965,118.22619,57.7563-.2304,.4736Zm97.8734-7.021l-.3367-.4951,108.5737-74.3287,.6416,.9414-108.8786,73.8824Zm-93.6249-.3439L93.4087,113.5658c.2544-.3739,.5101-.7465,.7675-1.1183l108.21129,74.8564-.2193,.3191Zm88.18181-6.5464l-.16621-.1787,96.2826-89.6822c.3401,.3653,.6785,.732,1.0151,1.0996l-97.13149,88.7613Zm-82.89551-.0827L110.8884,91.6171c.3062-.3307,.6141-.6606,.9229-.9894l95.9075,90.083-.2643,.2832Zm76.7732-5.6418l-.2905-.2326,81.9597-102.9353c.3572,.284,.7144,.5702,1.0699,.858l-82.7391,102.3099Zm-70.551-.1422l-82.268-102.6894c.3684-.2951,.7376-.5885,1.1085-.8806l81.413,103.3686-.2535,.2014Zm63.6567-4.6224l-.3795-.2206,65.7195-113.9919,1.1282,.6554-66.4682,113.5571Zm-56.6986-.1401L154.5777,56.6509c.3897-.2262,.7804-.4507,1.1715-.6742l65.2187,114.2789-.3331,.1918Zm49.0831-3.5838l-.3444-.1366,47.9323-122.5381c.4284,.1675,.855,.3362,1.2799,.5063l-48.8678,122.1684Zm-41.5036-.0818l-48.3649-122.3681c.4321-.1708,.8647-.3395,1.2982-.5066l47.39,122.7484-.3233,.1263Zm33.5498-2.4123l-.34609-.0792,28.89259-128.368c.4515,.1016,.902,.2048,1.3517,.3097l-29.8982,128.1375Zm-25.6135-.0432l-29.3458-128.2651c.4569-.1046,.9149-.2078,1.374-.3089l28.2973,128.5008-.3255,.0732Zm17.2608-1.2456l-.3701-.0277,9.5126-131.2352c.4557,.0329,.9114,.0677,1.3654,.1041l-10.5079,131.1588Zm-8.9201-.0137l-9.9131-131.2056c.454-.0342,.9094-.0667,1.3651-.0976l8.9201,131.2767-.3721,.0265Z" style="fill:#e6e6e6;"></path><g><path d="M94.266,379.4347c-1.7596,0-3.2957-.5667-4.6082-1.7002s-1.9688-2.7183-1.9688-4.7563c0-1.8078,.6346-3.3287,1.9039-4.5626,1.2692-1.2333,2.8269-1.8509,4.6731-1.8509,1.8173,0,3.3462,.6176,4.5866,1.8509,1.2404,1.2339,1.8606,2.7548,1.8606,4.5626,0,2.0087-.649,3.5876-1.9471,4.7348-1.2981,1.1472-2.7981,1.7217-4.5001,1.7217Z" style="fill:#ebebeb;"></path><path d="M74,329.2098c0-2.655,.8569-5.3449,2.5706-8.0697s4.2141-4.9815,7.501-6.7701c3.287-1.788,7.1218-2.6829,11.5044-2.6829,4.0736,0,7.6696,.7482,10.788,2.2427,3.1185,1.4952,5.5275,3.5283,7.2272,6.0994,1.6996,2.5717,2.5495,5.3658,2.5495,8.3841,0,2.3755-.4846,4.4581-1.4539,6.2461-.9692,1.7886-2.1211,3.3327-3.4555,4.6322-1.3345,1.2995-3.7295,3.4864-7.185,6.5605-.9552,.8664-1.7207,1.6285-2.2966,2.2847-.576,.6567-1.0044,1.2576-1.2853,1.8025-.281,.545-.4987,1.09-.6532,1.6349-.1545,.545-.3863,1.5027-.6953,2.8716-.5338,2.907-2.2054,4.3597-5.0148,4.3597-1.4609,0-2.69-.4751-3.6873-1.4253-.9973-.9496-1.496-2.3615-1.496-4.234,0-2.3475,.3652-4.3806,1.0957-6.0994,.7304-1.7187,1.6997-3.2278,2.9077-4.5274,1.208-1.2995,2.8375-2.8435,4.8883-4.6321,1.798-1.5651,3.0973-2.7458,3.898-3.5423s1.4749-1.6832,2.0228-2.6619c.5478-.9782,.8217-2.0396,.8217-3.186,0-2.2357-.8358-4.1221-2.5074-5.6592-1.6715-1.5365-3.8277-2.3056-6.4686-2.3056-3.0903,0-5.3659,.7755-6.8267,2.3265-1.4609,1.5511-2.697,3.8358-3.7084,6.854-.9552,3.1586-2.7673,4.737-5.4362,4.737-1.5732,0-2.9006-.5514-3.9823-1.6558-1.0816-1.1039-1.6224-2.2987-1.6224-3.5842Z" style="fill:#ebebeb;"></path></g><g><path d="M406.32039,302.6253c-1.7546-.1339-3.2431-.8158-4.4656-2.0458s-1.7564-2.8601-1.6014-4.8922c.1375-1.8026,.8859-3.2708,2.2453-4.4046,1.3594-1.1333,2.9596-1.6306,4.8004-1.4902,1.8121,.1382,3.2895,.8703,4.4326,2.1943,1.1429,1.3247,1.6457,2.8883,1.5082,4.6909-.1528,2.0029-.92,3.5278-2.3016,4.573-1.3815,1.0452-2.9209,1.504-4.6179,1.3746Z" style="fill:#f0f0f0;"></path><path d="M389.93249,251.0046c.2019-2.6473,1.2609-5.2642,3.1768-7.8508,1.916-2.5866,4.58071-4.6467,7.9942-6.1801,3.4134-1.5329,7.3052-2.1336,11.6751-1.8003,4.0618,.3098,7.5905,1.3293,10.5862,3.0567,2.9957,1.7279,5.24321,3.9384,6.7424,6.6313,1.4992,2.6935,2.1341,5.5441,1.9045,8.5536-.1806,2.3687-.8222,4.4084-1.9246,6.1175-1.1025,1.7097-2.3684,3.1617-3.7978,4.356s-3.9838,3.1927-7.6631,5.9951c-1.0183,.7912-1.8396,1.493-2.4637,2.1034-.6242,.6111-1.0971,1.1776-1.4187,1.6996-.3216,.5221-.5801,1.0489-.7756,1.5805s-.4995,1.469-.9117,2.8104c-.7533,2.858-2.53049,4.1793-5.3317,3.9657-1.4567-.1111-2.6461-.6783-3.5683-1.7016-.9222-1.0227-1.3121-2.4684-1.1697-4.3354,.1786-2.3408,.6973-4.3402,1.5564-5.9984,.859-1.6583,1.9402-3.0893,3.2435-4.2932,1.3034-1.2039,3.0455-2.6196,5.2265-4.247,1.91181-1.4238,3.2971-2.5023,4.1561-3.2356,.8589-.7333,1.5986-1.5662,2.2193-2.5004,.6206-.9337,.9745-1.9712,1.0616-3.1142,.1701-2.2293-.5199-4.1738-2.0697-5.8336-1.5499-1.6591-3.6414-2.59-6.27449-2.7908-3.08141-.235-5.40941,.3652-6.984,1.8007-1.57461,1.4354-2.98091,3.6195-4.21881,6.5521-1.1927,3.0768-3.1195,4.5128-5.7807,4.3098-1.5687-.1196-2.8503-.7703-3.8448-1.9539-.9945-1.1829-1.4429-2.4153-1.3452-3.6971Z" style="fill:#f0f0f0;"></path></g><g><path d="M89.7937,137.2238c-1.5584-.0811-2.8927-.6539-4.0028-1.7183-1.1101-1.0643-1.6183-2.4982-1.5243-4.3031,.0834-1.601,.7156-2.9187,1.8965-3.953,1.181-1.0337,2.589-1.5088,4.2241-1.4237,1.6094,.0838,2.935,.7013,3.9766,1.8507,1.0417,1.15,1.5208,2.5255,1.4375,4.1266-.0927,1.779-.7403,3.1473-1.9428,4.1035-1.2026,.9562-2.5575,1.3958-4.0648,1.3173Z" style="fill:#e6e6e6;"></path><path d="M74.1616,91.8085c.1224-2.3513,1.0053-4.694,2.6487-7.0282,1.6433-2.3342,3.9618-4.2175,6.9553-5.6499,2.9935-1.432,6.431-2.0477,10.3124-1.8456,3.6077,.1879,6.7579,1.0163,9.4507,2.4837,2.6929,1.468,4.7326,3.3797,6.1193,5.7351,1.3867,2.356,2.0105,4.8697,1.8713,7.5428-.1095,2.1038-.6347,3.9258-1.5756,5.4647-.9408,1.5393-2.0321,2.8537-3.2739,3.943-1.2418,1.0894-3.4637,2.9157-6.6658,5.4789-.8859,.7232-1.599,1.3629-2.1393,1.9175-.5404,.555-.9475,1.0674-1.2214,1.5371-.274,.4697-.4919,.9423-.6539,1.4178s-.4114,1.313-.7482,2.511c-.6068,2.55-2.1542,3.7594-4.6423,3.6299-1.2938-.0674-2.3604-.5448-3.1998-1.4323-.8395-.887-1.216-2.1604-1.1297-3.8187,.1083-2.0791,.5255-3.8628,1.2516-5.3513,.7262-1.4885,1.6542-2.7803,2.784-3.8755s2.644-2.3875,4.5428-3.877c1.6645-1.3031,2.8697-2.2889,3.6156-2.9574,.7458-.6685,1.3838-1.4227,1.9141-2.2642,.5303-.841,.8218-1.7684,.8747-2.7837,.1031-1.98-.5501-3.6892-1.9596-5.1276-1.4096-1.4378-3.2837-2.2184-5.6225-2.3402-2.7369-.1425-4.788,.4394-6.1533,1.7457s-2.5654,3.2726-3.6003,5.899c-.9916,2.7533-2.6692,4.0677-5.0329,3.9446-1.3933-.0726-2.5435-.6221-3.4505-1.6501-.907-1.0276-1.3308-2.1106-1.2715-3.2491Z" style="fill:#e6e6e6;"></path></g><g><path d="M132.6395,287.61c-.9907-.0747-1.8315-.4589-2.5224-1.1528-.6909-.6939-.9931-1.6141-.9067-2.7615,.0767-1.0179,.4986-1.8472,1.2656-2.4881,.7669-.6406,1.6702-.9222,2.7096-.8438,1.0232,.0771,1.8578,.4896,2.5039,1.2367,.646,.7473,.9307,1.6299,.854,2.6478-.0853,1.131-.5177,1.9924-1.2972,2.5832-.7796,.5909-1.6485,.8507-2.6068,.7785Z" style="fill:#ebebeb;"></path><path d="M123.3602,258.4718c.1126-1.4948,.7092-2.9729,1.7897-4.4344,1.0805-1.4614,2.584-2.6259,4.5106-3.4935,1.9265-.8672,4.1236-1.2084,6.5911-1.0224,2.2936,.1728,4.2865,.7466,5.9789,1.7204,1.6923,.9742,2.9624,2.2211,3.8103,3.7408,.8478,1.5201,1.2078,3.1293,1.0797,4.8287-.1008,1.3375-.462,2.4895-1.0836,3.4551-.6216,.9659-1.3356,1.7864-2.1421,2.4614-.8065,.6751-2.2477,1.8047-4.3237,3.389-.5746,.4472-1.038,.8438-1.3901,1.1888-.3521,.3454-.6188,.6655-.8001,.9604s-.327,.5925-.4371,.8928c-.1102,.3003-.2813,.8297-.5134,1.5873-.4238,1.6141-1.4266,2.361-3.0084,2.2418-.8225-.0619-1.4944-.3816-2.0156-.9589-.5212-.577-.7421-1.3931-.6626-2.4473,.0996-1.3217,.3914-2.451,.8756-3.3877s1.094-1.7452,1.8293-2.4257c.7353-.6804,1.7182-1.4806,2.9488-2.4006,1.0787-.8049,1.8604-1.4146,2.345-1.829,.4846-.4145,.9018-.8852,1.2518-1.413,.3499-.5275,.5492-1.1134,.5978-1.7589,.0949-1.2588-.2956-2.3564-1.1716-3.2927-.8759-.936-2.0573-1.4606-3.5442-1.5726-1.7399-.1311-3.0541,.209-3.9424,1.0203s-1.6812,2.0452-2.3787,3.7016c-.6718,1.7379-1.7591,2.5497-3.2617,2.4365-.8858-.0668-1.6098-.4336-2.1719-1.1013-.5622-.6674-.816-1.363-.7614-2.0869Z" style="fill:#ebebeb;"></path></g><g><path d="M333.721,302.2175c-.99071-.0747-1.83161-.4589-2.52251-1.1528s-.9931-1.614-.9066-2.7615c.0767-1.0179,.4985-1.8472,1.2655-2.4881,.767-.6405,1.6702-.9222,2.7097-.8438,1.0232,.0771,1.8578,.4897,2.5038,1.2367,.64611,.7473,.9307,1.63,.854,2.6478-.0852,1.131-.5176,1.9924-1.2972,2.5832-.7795,.5909-1.6485,.8507-2.60669,.7785Z" style="fill:#ebebeb;"></path><path d="M324.44159,273.0794c.1127-1.4949,.7092-2.973,1.7897-4.4344,1.0805-1.4615,2.584-2.626,4.5106-3.4936,1.9265-.8672,4.1236-1.2083,6.5912-1.0224,2.2935,.1728,4.2865,.7467,5.9788,1.7205,1.6923,.9741,2.9624,2.221,3.8103,3.7408,.8479,1.52,1.20781,3.1292,1.0797,4.8286-.1008,1.3375-.462,2.4895-1.0835,3.4551-.6216,.9659-1.3357,1.7864-2.1422,2.4615-.8064,.675-2.2477,1.8046-4.3237,3.3889-.5746,.4472-1.0379,.8439-1.39,1.1889-.3522,.3453-.6189,.6654-.8002,.9603-.18129,.2949-.327,.5925-.4371,.8928s-.28119,.8297-.5133,1.5873c-.42389,1.6141-1.4267,2.3611-3.0085,2.2419-.8225-.062-1.4943-.3817-2.0156-.959-.5212-.5769-.742-1.393-.6626-2.4473,.0996-1.3217,.3915-2.4509,.8757-3.3877,.4842-.9367,1.0939-1.7452,1.8292-2.4256,.7353-.6805,1.7182-1.4807,2.9488-2.4007,1.0788-.8049,1.8604-1.4146,2.345-1.829,.4846-.4145,.9019-.8851,1.2518-1.413,.35-.5274,.5492-1.1134,.5979-1.7589,.0948-1.2588-.2957-2.3563-1.17159-3.2927-.876-.936-2.05741-1.4605-3.54421-1.5726-1.74-.1311-3.0541,.209-3.9424,1.0203-.88839,.8113-1.6813,2.0452-2.3788,3.7017-.6718,1.7378-1.759,2.5496-3.2617,2.4364-.8858-.0668-1.6098-.4335-2.17189-1.1013-.56211-.6674-.81591-1.363-.76141-2.0868Z" style="fill:#ebebeb;"></path></g><g><path d="M406.21179,143.8238c-.9935,0-1.86079-.32-2.6019-.9599-.7411-.64-1.1116-1.5349-1.1116-2.6856,0-1.0207,.3583-1.8795,1.075-2.5762,.7166-.6963,1.5961-1.045,2.6385-1.045,1.02621,0,1.8894,.3487,2.5898,1.045,.7003,.6967,1.0505,1.5555,1.0505,2.5762,0,1.1342-.3665,2.0256-1.0994,2.6734s-1.5799,.9721-2.5409,.9721Z" style="fill:#ebebeb;"></path><path d="M394.76909,115.4654c0-1.4991,.4838-3.0178,1.4514-4.5564,.9677-1.5385,2.3794-2.8127,4.2353-3.8226,1.856-1.0095,4.02121-1.5148,6.4957-1.5148,2.3001,0,4.33051,.4224,6.0913,1.2663,1.7607,.8442,3.1209,1.9922,4.0806,3.4439,.9597,1.4521,1.4395,3.0297,1.4395,4.7339,0,1.3413-.2736,2.5172-.82089,3.5267-.54721,1.0099-1.19761,1.8817-1.95111,2.6155-.7534,.7337-2.1057,1.9685-4.0568,3.7042-.5393,.4892-.9716,.9195-1.2968,1.29-.3252,.3708-.5671,.7101-.7257,1.0178-.15859,.3077-.2815,.6154-.3688,.9231-.0872,.3077-.2181,.8485-.3926,1.6214-.3014,1.6414-1.24519,2.4616-2.8314,2.4616-.8249,0-1.5189-.2683-2.082-.8048-.5631-.5362-.8447-1.3334-.8447-2.3906,0-1.3255,.2062-2.4734,.6187-3.4439,.4124-.9704,.9596-1.8225,1.6417-2.5563,.6821-.7337,1.6021-1.6055,2.7601-2.6154,1.0152-.8837,1.7489-1.5504,2.2009-2.0001,.4521-.4497,.8328-.9504,1.1421-1.503,.30941-.5523,.464-1.1516,.464-1.7989,0-1.2623-.4719-2.3275-1.4157-3.1953-.9438-.8676-2.1613-1.3019-3.6524-1.3019-1.7448,0-3.0297,.4379-3.8546,1.3137-.8248,.8758-1.5228,2.1657-2.0938,3.8699-.5393,1.7835-1.5625,2.6747-3.0694,2.6747-.8883,0-1.6378-.3113-2.2485-.935-.6107-.6233-.9161-1.2978-.9161-2.0237Z" style="fill:#ebebeb;"></path></g><g><g><g><path d="M443.92039,330.1975h-180.7461c-3.2324,0-5.86229-2.6298-5.86229-5.8623V61.0618c0-3.2324,2.62989-5.8618,5.86229-5.8618h180.7461c3.2324,0,5.8623,2.6294,5.8623,5.8618V324.3352c0,3.2325-2.6299,5.8623-5.8623,5.8623ZM263.17429,55.45c-3.0947,0-5.61229,2.5176-5.61229,5.6118V324.3352c0,3.0948,2.51759,5.6123,5.61229,5.6123h180.7461c3.0947,0,5.6123-2.5175,5.6123-5.6123V61.0618c0-3.0942-2.5176-5.6118-5.6123-5.6118h-180.7461Z" style="fill:#e0e0e0;"></path><path d="M235.49269,330.1975H54.7461c-3.2324,0-5.8618-2.6298-5.8618-5.8623V61.0618c0-3.2324,2.6294-5.8618,5.8618-5.8618H235.49269c3.2324,0,5.86231,2.6294,5.86231,5.8618V324.3352c0,3.2325-2.62991,5.8623-5.86231,5.8623ZM54.7461,55.45c-3.0942,0-5.6118,2.5176-5.6118,5.6118V324.3352c0,3.0948,2.5176,5.6123,5.6118,5.6123H235.49269c3.0947,0,5.61231-2.5175,5.61231-5.6123V61.0618c0-3.0942-2.51761-5.6118-5.61231-5.6118H54.7461Z" style="fill:#e0e0e0;"></path></g><rect x="0" y="391.2669" width="500" height=".25" style="fill:#e0e0e0;"></rect></g><rect x="51.6724" y="405.5314" width="16.06" height=".25" style="fill:#e0e0e0;"></rect><rect x="170.3524" y="402.8214" width="53.53" height=".25" style="fill:#e0e0e0;"></rect><rect x="68.7324" y="414.8214" width="36.25" height=".25" style="fill:#e0e0e0;"></rect><rect x="378.35239" y="402.6914" width="43.19" height=".25" style="fill:#e0e0e0;"></rect><rect x="430.45239" y="402.6914" width="6.33" height=".25" style="fill:#e0e0e0;"></rect><rect x="316.21239" y="408.9214" width="53.89" height=".25" style="fill:#e0e0e0;"></rect></g></g><g id="freepik--Shadow_2--inject-3"><path d="M461.482,468.0618c0,3.4474-95.19241,6.2421-212.61831,6.2421s-212.61829-2.7947-212.61829-6.2421,95.1924-6.2422,212.61829-6.2422,212.61831,2.7947,212.61831,6.2422Z" style="fill:#f5f5f5;"></path></g><g id="freepik--Question_Mark--inject-3"><path d="M130.4898,170.5152c0-15.7287,4.841-31.6643,14.5229-47.8068,9.6819-16.1426,23.808-29.5119,42.3783-40.1081,18.57029-10.5927,40.23559-15.8942,64.996-15.8942,23.01439,0,43.33059,4.4323,60.94849,13.2866,17.618,8.8577,31.2283,20.9025,40.8308,36.1345,9.6026,15.2354,14.4039,31.7884,14.4039,49.6694,0,14.073-2.7379,26.411-8.2138,37.0037-5.4758,10.5962-11.98339,19.7436-19.5226,27.4424-7.5392,7.6987-21.0701,20.6542-40.5927,38.8663-5.3965,5.1325-9.7216,9.6476-12.9754,13.5349-3.25369,3.8908-5.6742,7.4504-7.2614,10.6789s-2.81729,6.4571-3.69029,9.6856c-.87291,3.2285-2.18241,8.9025-3.92831,17.0118-3.01569,17.2221-12.4595,25.8281-28.3316,25.8281-8.2534,0-15.1974-2.8146-20.832-8.4439-5.6346-5.6257-8.4518-13.9902-8.4518-25.083,0-13.9074,2.0633-25.9523,6.19-36.1345,4.1268-10.1822,9.6026-19.1227,16.4276-26.8215,6.825-7.6988,16.0307-16.8462,27.6173-27.4424,10.1581-9.2716,17.4989-16.2667,22.0225-20.9853,4.5235-4.7186,8.3328-9.9718,11.4278-15.77,3.0951-5.7948,4.6426-12.0828,4.6426-18.8744,0-13.2452-4.7219-24.4208-14.1658-33.5269-9.4439-9.1026-21.6256-13.6591-36.54529-13.6591-17.45931,0-30.31561,4.5945-38.56911,13.7833-8.2534,9.1888-15.2371,22.7238-20.951,40.6048-5.3965,18.7122-15.634,28.0632-30.7124,28.0632-8.8884,0-16.3879-3.2665-22.4986-9.8097-6.1108-6.5398-9.1661-13.6177-9.1661-21.2337Z" style="fill:#0071B2;"></path><g><path d="M244.98569,468.0617c-9.9414,0-18.61969-3.3575-26.035-10.0725-7.4153-6.7151-11.1229-16.1041-11.1229-28.1777,0-10.7101,3.5854-19.7201,10.75621-27.0302,7.17079-7.3065,15.97139-10.965,26.40169-10.965,10.26731,0,18.9049,3.6585,25.9127,10.965,7.0079,7.3101,10.5118,16.3201,10.5118,27.0302,0,11.9001-3.6669,21.2537-11.0007,28.0502-7.3338,6.7965-15.8084,10.2-25.4238,10.2Z" style="fill:#0071B2;"></path><g style="opacity:.2;"><path d="M246.99449,401.4639c-.9786-.9716-2.4667-1.1776-3.8438-1.2497-3.8513-.2015-7.3803,.3238-11.0863,1.3909-5.5049,2.1059-10.1898,6.2812-12.913,11.5083s-3.46039,11.4592-2.0316,17.1773c.6486,2.5959,2.3701,5.524,5.0431,5.405,1.76811-.0788,3.1448-1.498,4.3233-2.8184,2.809-3.1473,5.618-6.2945,8.4271-9.4418,4.2071-4.7136,8.4449-9.4693,11.6153-14.9343,1.2736-2.1954,2.2671-5.2491,.4659-7.0373Z" style="fill:#fff;"></path></g></g></g><g id="freepik--Speech_Bubble--inject-3"><g><g><path d="M301.68389,59.0443c-10.07289-7.4328-24.2641-5.2925-31.6968,4.7804-5.7382,7.7764-5.7485,17.9957-.8303,25.6765l-1.8312,6.5569,7.1512-.7749c.1003,.0766,.1888,.163,.2909,.2382,10.0728,7.4328,24.2639,5.2923,31.6966-4.7805,7.43271-10.073,5.2925-24.2641-4.7804-31.6966Z" style="fill:#0071B2;"></path><path d="M301.68389,59.0443c-10.07289-7.4328-24.2641-5.2925-31.6968,4.7804-5.7382,7.7764-5.7485,17.9957-.8303,25.6765l-1.8312,6.5569,7.1512-.7749c.1003,.0766,.1888,.163,.2909,.2382,10.0728,7.4328,24.2639,5.2923,31.6966-4.7805,7.43271-10.073,5.2925-24.2641-4.7804-31.6966Z" style="fill:#fff; opacity:.7;"></path><path d="M313.75098,76.70752h-.00781c-.1377-.00439-.24609-.11914-.24219-.25732,.21484-7.25439-3.52344-14.58105-9.52246-18.66553-.11426-.07764-.14355-.23291-.06641-.34717,.07812-.11426,.23438-.14355,.34766-.06592,6.13672,4.17822,9.96094,11.67285,9.74121,19.09326-.00391,.13574-.11523,.24268-.25,.24268Z" style="fill:#0071B2;"></path><path d="M312.99219,83.38672c-.03027,0-.06055-.00537-.08984-.0166-.12891-.0498-.19336-.19434-.14355-.32324,.38965-1.01172,.57031-2.11914,.52246-3.20312-.00586-.13818,.10059-.25488,.23926-.26074,.12988-.01172,.25488,.10059,.26074,.23828,.05078,1.15234-.1416,2.33008-.55566,3.40527-.03809,.09912-.13281,.16016-.2334,.16016Z" style="fill:#0071B2;"></path></g><path d="M286.75479,78.3957c.3815-.6483,.938-1.3636,1.6686-2.1461,.536-.5725,.9293-1.0543,1.1808-1.4451,.2523-.3907,.3781-.8342,.3781-1.3312,0-.7052-.2396-1.2633-.7187-1.6736-.4792-.4103-1.1163-.6151-1.91159-.6151-.76371,0-1.44161,.186-2.03381,.5582-.593,.3712-1.0917,.892-1.4977,1.5589l-2.9472-2.0312c.6822-1.2209,1.6032-2.1656,2.7645-2.8333,1.1605-.6678,2.5367-1.0016,4.128-1.0016,1.8673,0,3.365,.468,4.4933,1.4025,1.1282,.9346,1.6923,2.2318,1.6923,3.8919,0,.7824-.1096,1.4688-.3288,2.0601s-.4868,1.0925-.80359,1.502c-.31611,.4103-.72641,.8827-1.22931,1.4171-.60069,.6295-1.0391,1.1588-1.3152,1.5878-.2761,.4291-.41449,.949-.41449,1.5598h-3.677c0-.9923,.19039-1.8121,.57179-2.4611Zm-.389,8.6734c-.4469-.4524-.6703-1.003-.6703-1.6524,0-.6486,.2191-1.1909,.6574-1.6265,.4384-.435,.99911-.6533,1.6805-.6533,.6822,0,1.242,.2183,1.6804,.6533,.4384,.4356,.6576,.9779,.6576,1.6265,0,.6494-.2226,1.2-.66939,1.6524-.44691,.4526-1.00251,.6784-1.66861,.6784-.6652,0-1.2216-.2258-1.6676-.6784Z" style="fill:#0071B2;"></path></g></g><g id="freepik--Shadow_1--inject-3"><g><path d="M199.12159,127.3028c.0305-.0066,.0603-.0165,.0907-.0237-.0552,.0081-.112,.0072-.1676,.0134,.0258,.0027,.0511,.008,.0769,.0103Z" style="fill:none;"></path><path d="M198.07629,106.9584c-.02829-.0024-.0559-.0094-.08429-.0115-.03081,.0061-.06,.0173-.0906,.0239,.0579-.0062,.1166-.0082,.1749-.0124Z" style="fill:none;"></path><path d="M297.21389,242.6683c-4.2084-23.5331-8.56689-32.9984-14.2102-37.6636-4.4394,4.3788-10.4371,10.0168-17.9985,16.9183-9.7464,8.9133-17.80119,16.7973-24.1784,23.6604,2.4206,30.8749,5.8591,74.7058,5.9017,75.0822l2.0844,24.8953c8.8372-1.0936,15.2975-5.3695,19.3785-12.8334-.7525-9.2583-2.4538-12.8673-2.4538-12.8673,0,0,2.1456-31.5388,4.1905-56.1085,2.8904,9.7754,5.6604,20.7261,9.3796,31.0724,.2289-.5005,.4506-1.0009,.6966-1.5014,1.5872-3.2283,4.00771-6.788,7.2614-10.6788,3.2538-3.8873,7.5789-8.4024,12.9754-13.5349,.5266-.4913,1.0316-.9636,1.5495-1.4471-1.959-9.9577-3.6709-19.3589-4.5767-24.9936Z"></path><path d="M308.71049,209.2983l-9.3139-26.0302c-.2984,.6381-.6064,1.2731-.9411,1.8996-1.8373,3.442-3.9326,6.6871-6.2733,9.7472l9.1582,17.221c-.5495,.8729-1.2347,2.2852-1.1177,3.7801,.1908,2.4419-.3066,4.4429-.0392,6.2486,.26751,1.8056,1.58751-.2745,2.0659-1.5234,.4782-1.2486,1.033-2.6594,1.9128-2.1483,.8801,.5108,5.2589,8.0872,6.5594,8.6565,1.30041,.5698,.97541-.8772,.97541-.8772,0,0,1.11309,1.8115,1.95079,1.566,.2175-.0638,.62021-.5649,.2423-1.4699-.85-2.0359-2.85409-6.217-2.85409-6.217,.11009,.2422,2.95229,5.2262,3.47539,5.9172,.6838,.9031,1.4667,.9803,1.9772,.5667,.7268-.5885-2.58659-6.8881-2.5405-7.2515,0,0,1.7861,3.6904,2.9911,3.7509,1.2051,.0601,.2075-2.3245-1.0716-4.26-1.17259-1.7742-3.0083-5.5618-4.3752-7.2498-.9036-1.1157-1.7863-1.9125-2.7819-2.3265Z"></path><path d="M202.33839,144.851c.057-.0304,.1113-.059,.1692-.0901,1.354-.7284,.1956-6.2852,.1956-6.2852,0,0,1.3916-1.5001,.8583-2.9026-.282-.7412-.6192-.8645-.6192-.8645,1.0416-1.1595,.877-2.9722-.3714-3.9056-.1117-.0833-.18089-.1302-.18089-.1302,.46419-.611-.038-2.5374-1.24191-1.986-.2624,.1204-.8165,.4781-1.5072,.9618v-2.3108c.1278-.0035,.25011-.008,.3397-.0134,4.1481-.2539,7.23041-5.0427,6.8846-10.6962-.3458-5.6536-3.9889-10.0311-8.137-9.7774-.2496,.0153-.4948,.0488-.73619,.0961,.02839,.0021,.056,.0091,.08429,.0115-.05829,.0042-.117,.0062-.1749,.0124,.0306-.0066,.0598-.0178,.0906-.0239-.2455-.0175-.4932-.0209-.7429-.0056-4.1481,.2537-7.2305,5.0426-6.8846,10.6962,.3186,5.2093,3.4383,9.3254,7.1714,9.7433v3.82c-2.2648,1.7429-4.6923,3.8364-4.6182,4.4344,.1264,1.0201,2.9402,10.2855,2.9402,10.2855l.0746,.0004c.2421,2.352,.867,8.0309,1.822,14.104,1.8047-4.3853,3.7096-8.4279,5.7164-12.1214l-1.1325-3.0527Zm-3.2168-17.5482c-.0258-.0023-.0511-.0076-.0769-.0103,.0556-.0062,.1124-.0053,.1676-.0134-.0304,.0072-.0602,.0171-.0907,.0237Z"></path><path d="M242.33969,95.7513l.0048-.0066c-.0248,.0001-.0472-.001-.0717-.001-.6025-.0779-1.221-.1114-1.859-.0816-2.3024-.1647-4.2795-.3604-9.76879,1.6632-6.50281,2.6855-9.30961,7.839-10.09371,11.8175-.4539,5.4921,.5743,9.6471,.887,15.1341l.4312-.5885c-.0012,.5535,.0101,1.0949,.03751,1.6172,.01779,.2964,.05929,.5795,.09479,.8661,7.7781-4.7007,17.8977-7.0644,30.38521-7.0644,.67819,0,1.34419,.0201,2.01109,.0388-.1398-.1897-.3013-.3641-.4854-.519,.4091-1.4467,.7364-2.9501,1.0407-4.3564,.2682-1.3932,.3303-2.7946,.2381-4.1767,1.9789,.711,3.869,2.1069,4.6014,3.8012,.9838,2.2756,1.8809,4.0364,2.9966,6.0265,8.0042,1.306,15.0544,4.199,21.1583,8.6638,2.6457-.4995,5.2138-1.4099,7.4245-3.0604,3.2491-2.4256,5.4474-7.1432,4.0785-11.2226-1.2896,1.2302-3.0591,1.8138-4.7427,1.564,1.44591-1.5307,2.0507-3.9758,1.5122-6.1145-5.6219,2.23-12.3288,5.0144-17.7131,2.1486-2.4676-1.3133-4.0585-4.1386-6.0318-6.2469-1.9732-2.1084-4.12439-4.1848-6.7558-5.0155-2.1502-.6788-6.3525,.6411-8.6001,2.5614-.3668-.641-.7626-1.2674-1.2207-1.8574-2.0795-2.1102-5.3802-5.0242-9.5591-5.5909Z"></path></g></g><g id="freepik--Character--inject-3"><g><g><path d="M185.6436,113.9348c-.325-5.3134,2.3784-9.861,6.1483-10.6-.2455-.0176-.4931-.021-.7429-.0057-4.1481,.2537-7.2304,5.0426-6.8846,10.6962s3.9889,10.0311,8.137,9.7773c.2496-.0153,.4949-.0487,.7362-.0961-3.8316-.2742-7.069-4.4585-7.394-9.7717Z" style="fill:#263238;"></path><ellipse cx="192.25617" cy="113.52063" rx="7.29117" ry="10.20128" style="fill:#fff; opacity:.5;"></ellipse><path d="M196.775,106.2939l-11.5078,10.1368c.146,.797,.4774,1.7088,.8826,2.6662l11.8902-10.6867c-.2775-.7267-.7237-1.4285-1.265-2.1163Z" style="fill:#fff; opacity:.5;"></path><path d="M195.2096,104.5872l-10.2327,9.6693,.091,.8573,10.8689-9.7703c-.2775-.7268-.2363-.4803-.7272-.7563Z" style="fill:#fff; opacity:.5;"></path><path d="M200.66509,113.016c-.3458-5.6536-3.9888-10.0311-8.1369-9.7774-.2496,.0153-.4949,.0488-.7363,.0962,3.8317,.2742,7.069,4.4585,7.3941,9.7717,.325,5.3134-2.6134,9.8765-6.3833,10.6154,.2455,.0175,.7281,.0056,.9778-.0097,4.1481-.2538,7.2304-5.0426,6.8846-10.6962Z" style="fill:#263238;"></path><path d="M191.3359,123.7219h2.1049v14.8649c0,.57068-.46332,1.034-1.034,1.034h-.037c-.57062,0-1.0339-.46328-1.0339-1.0339v-14.865h0Z" style="fill:#263238;"></path><path d="M212.99309,151.0565l-8.3492,13.1097-9.04889-24.3921-5.9777,1.3804s2.8288,30.1833,7.533,34.8494c3.4602,3.4321,8.5022,3.6864,12.1093,.8469,3.5529-2.7969,15.3543-17.5781,15.3543-17.5781l-11.6208-8.2162Z" style="fill:#b97964;"></path><path d="M189.6579,142.3084s-2.8138-9.2654-2.9402-10.2853,7.0265-6.3969,8.2304-6.9484c1.2039-.5515,1.7061,1.3749,1.2419,1.9859,0,0,.0692,.0469,.1808,.1303,1.2484,.9333,1.413,2.746,.3715,3.9056h0s.3372,.1231,.6191,.8645c.5334,1.4025-.8582,2.9026-.8582,2.9026,0,0,1.1584,5.5567-.1956,6.2851-1.4253,.7668-2.5852,1.3417-2.6084,1.1856l-4.0413-.0259Z" style="fill:#b97964;"></path><path d="M191.7919,137.5158l1.9188-1.4315v3.2866c0,.6392-.4295,1.1575-.9594,1.1575h0c-.5298,0-.9594-.5183-.9594-1.1575v-1.8551Z" style="fill:#263238;"></path></g><g><polygon points="245.57789 369.9573 246.878 383.59 257.13129 384.712 258.17149 370.0518 245.57789 369.9573" style="fill:#b97964;"></polygon><g><path d="M244.65729,381.4141c-.0212-.5381,.4475-.9655,.975-.9451l3.1169,.12c.7877,.011,1.5909,1.4764,2.0477,2.131,1.9699,2.8233,3.4925,1.7877,5.711-.81,1.39-.1458,1.742,1.4837,1.8494,1.9218l2.473,9.6882c.2152,.8092-.2535,1.6429-1.0471,1.8625-.1411,.039-.2869,.0567-.43319,.0523-4.22691-.0587-6.22681-.0864-11.48771-.1596l-16.0895-.2236c-4.386-.0609-5.2347-4.581-3.4226-4.973,8.14881-1.718,13.9343-4.0759,16.4777-6.4511,.3549-.3128-.132-1.2262-.1706-2.2134Z" style="fill:#263238;"></path><path d="M246.08398,386.6377c-.08496,0-.16748-.04297-.21436-.12109-.5957-.99414-1.625-1.69141-2.75342-1.86426-.13623-.02051-.22998-.14844-.20898-.28516,.021-.13574,.14893-.23047,.28516-.20898,1.27344,.19531,2.43457,.98047,3.10596,2.10059,.07129,.11914,.03271,.27246-.08594,.34375-.04004,.02344-.08447,.03516-.12842,.03516Z" style="fill:#fff;"></path><path d="M243.77393,387.98145c-.08496,0-.16748-.04297-.21436-.12109-.5957-.99512-1.625-1.69238-2.75391-1.86523-.13623-.02051-.22998-.14844-.20898-.28516,.021-.13574,.14893-.23047,.28516-.20898,1.27441,.19531,2.43555,.98145,3.10645,2.10156,.07129,.11914,.03271,.27246-.08594,.34375-.04004,.02344-.08447,.03516-.12842,.03516Z" style="fill:#fff;"></path><path d="M240.93018,389.33496c-.08496,0-.16748-.04297-.21436-.12109-.5957-.99512-1.625-1.69238-2.75342-1.86426-.13672-.02051-.23047-.14844-.20947-.28516,.021-.13574,.15234-.22656,.28467-.20898,1.27441,.19434,2.43555,.97949,3.10693,2.10059,.07129,.11914,.03271,.27246-.08594,.34375-.04004,.02344-.08447,.03516-.12842,.03516Z" style="fill:#fff;"></path></g></g><g><polygon points="328.87309 348.7027 339.90529 356.6119 347.55889 349.609 337.277 339.2244 328.87309 348.7027" style="fill:#b97964;"></polygon><g><path d="M336.70209,356.9642c-.4159-.3355-.4312-.976-.0738-1.3692l2.1118-2.3234c.5192-.5999,2.1356-.261,2.921-.1851,3.388,.3274,3.6018-1.5229,3.0995-4.9305,.7929-1.1665,2.239-.3726,2.6361-.1689l8.8452,4.4269c.7444,.3631,1.0635,1.2693,.7128,2.0245-.0624,.1342-.1438,.2582-.242,.368-2.786,3.2189-4.1041,4.742-7.5718,8.7483l-10.605,12.2526c-2.89089,3.3401-6.8196,1.0396-5.937-.6131,4.0024-7.4027,5.9934-13.4023,5.8682-16.9147-.0035-.4781-1.0022-.7-1.765-1.3154Z" style="fill:#263238;"></path><path d="M338.09863,360.26465c-.06934,0-.13867-.02832-.1875-.08496-.0918-.10352-.08105-.26172,.02246-.35254,.97363-.85449,2.31641-1.23828,3.58984-1.02051,.13574,.02246,.22754,.15137,.2041,.28809-.02246,.13574-.14355,.23047-.28809,.2041-1.12402-.18555-2.31445,.14746-3.17578,.90332-.04785,.04199-.10645,.0625-.16504,.0625Z" style="fill:#fff;"></path><path d="M337.60352,362.92285c-.06934,0-.13867-.02832-.1875-.08496-.0918-.10352-.08105-.26172,.02246-.35254,.97461-.85449,2.31543-1.2373,3.58984-1.02051,.13574,.02246,.22754,.15137,.2041,.28809-.02246,.13574-.14551,.23438-.28809,.2041-1.12598-.18457-2.31445,.14844-3.17578,.90332-.04785,.04199-.10645,.0625-.16504,.0625Z" style="fill:#fff;"></path><path d="M336.77051,365.99902c-.06934,0-.13867-.02832-.1875-.08496-.0918-.10352-.08105-.26172,.02246-.35254,.97266-.85449,2.31543-1.23828,3.58984-1.02051,.13574,.02246,.22754,.15137,.2041,.28809-.02246,.13574-.14355,.23047-.28809,.2041-1.12598-.18555-2.31445,.14746-3.17578,.90332-.04785,.04199-.10645,.0625-.16504,.0625Z" style="fill:#fff;"></path></g></g><g><path d="M232.29089,212.1677s8.1718,104.3041,8.2376,104.8857l5.1114,61.05h13.271s.09-3.5153,.78111-8.1461c6.05469-40.5918-.15451-53.7093-.15451-53.7093,0,0,5.3308-78.3651,7.1956-84.2709,.1864-.6153-6.1645-45.5247-34.4422-19.8094Z" style="fill:#263238;"></path><path d="M232.08879,212.0386l.3666,.6101c5.4692,7.401,15.8332,15.2825,21.2484,22.0431l1.8849,4.265s39.4334-30.5691,13.8031-43.1661c-1.0654-.5237-8.9111-4.7187-8.9111-4.7187-6.7896-1.6666-28.3919,20.9666-28.3919,20.9666Z" style="fill:#263238;"></path><path d="M291.01389,239.0561c2.1464,13.3528,8.8139,47.842,12.5898,60.8175,0,0,11.6181,6.6485,18.188,14.0872l20.9682,29.5212-9.3555,8.3982-38.2417-27.9733c-8.6459-6.5103-12.1489-11.3343-15.541-17.6838-8.2982-15.505-12.3948-35.2517-17.3479-50.8568-2.29279-7.2363-11.1052-30.5464-10.35379-38.0418,1.00169-10.1446,1.36009-26.5503,13.68639-20.9716,11.7924,3.4646,18.7844,5.6675,25.4075,42.7032Z" style="fill:#263238;"></path><polygon points="261.68719 258.8637 251.98929 223.04 240.93029 219.3513 249.56329 227.3993 261.68719 258.8637" style="isolation:isolate; opacity:.2;"></polygon></g><path d="M217.51969,145.4952c-3.5866,2.9705-9.9319,13.1156-9.9319,13.1156l14.2836,8.0932s7.3008-10.6258,6.55161-15.3505c-.781-4.923-5.50181-8.2266-10.90331-5.8583Z" style="fill:#263238;"></path><path d="M217.51969,145.4952c-3.5866,2.9705-9.9319,13.1156-9.9319,13.1156l14.2836,8.0932s7.3008-10.6258,6.55161-15.3505c-.781-4.923-5.50181-8.2266-10.90331-5.8583Z" style="fill:#fff; opacity:.5;"></path><path d="M216.75329,163.5086v-10.1598s-4.1568,12.1299-3.2028,14.3105c.954,2.1807,1.3351,3.3149,1.3351,3.3149l1.598-1.8517,.2697-5.6139Z" style="opacity:.3;"></path><path d="M269.03619,189.5273c-3.0721-3.5218-5.0789-7.8431-5.7895-12.4621-1.0835-7.0427-2.5634-16.8855-2.3965-17.6573l.4815-18.9915c-4.1976-4.1975-19.7809-4.2404-19.7809-4.2404l-10.4533,2.6655s-3.8824,1.7087-7.1357,3.5296c-4.3431,2.4311-6.6265,2.559-7.2244,5.3532,0,0-.854,9.1552-1.0879,18.4347-.08349,3.3116,15.2868,33.7466,15.4814,39.4791l.0038,9.3324c22.2792,11.2221,45.6829-16.5232,45.6829-16.5232l-7.7814-8.92Z" style="fill:#263238;"></path><path d="M269.03619,189.5273c-3.0721-3.5218-5.0789-7.8431-5.7895-12.4621-1.0835-7.0427-2.5634-16.8855-2.3965-17.6573l.4815-18.9915c-4.1976-4.1975-19.7809-4.2404-19.7809-4.2404l-10.4533,2.6655s-3.8824,1.7087-7.1357,3.5296c-4.3431,2.4311-6.6265,2.559-7.2244,5.3532,0,0-.854,9.1552-1.0879,18.4347-.08349,3.3116,15.2868,33.7466,15.4814,39.4791l.0038,9.3324c22.2792,11.2221,45.6829-16.5232,45.6829-16.5232l-7.7814-8.92Z" style="fill:#fff; opacity:.5;"></path><path d="M261.70979,166.8016s-9.7662-8.819-9.2716-12.9456l8.305,4.4621,.556,5.5882,.4106,2.8953Z" style="opacity:.3;"></path><g><path d="M268.86949,148.7054c.2266,.335,14.3703,16.256,20.05451,22.2831,1.219,1.2925,2.162,2.8166,2.77569,4.4839l11.6615,32.5911-7.3038,2.1847-16.764-31.523-21.06939-17.8254,10.64549-12.1944Z" style="fill:#b97964;"></path><path d="M295.78279,207.6326s-1.9512,2.229-1.7602,4.6712c.1908,2.442-.30659,4.4429-.0391,6.2486,.2674,1.8057,1.5874-.2746,2.0659-1.5234,.4781-1.2486,1.033-2.6593,1.9128-2.1483,.88,.5108,5.2589,8.0873,6.5593,8.6566,1.30051,.5698,.97551-.8773,.97551-.8773,0,0,1.11309,1.8115,1.95079,1.566,.2175-.0637,.6201-.5649,.2423-1.4699-.85009-2.0359-2.85409-6.2171-2.85409-6.2171,.11009,.2424,2.95229,5.2264,3.47529,5.9174,.6838,.903,1.4668,.9802,1.9773,.5665,.7268-.5884-2.5867-6.888-2.54059-7.2514,0,0,1.78619,3.6905,2.99119,3.7508,1.2051,.0603,.2074-2.3243-1.0716-4.2598-1.1727-1.7742-3.0084-5.5618-4.3753-7.2498-1.68429-2.08-3.2825-3.0983-5.7116-2.4668-2.4292,.6317-3.7979,2.0867-3.7979,2.0867Z" style="fill:#b97964;"></path><path d="M258.64989,138.9859c4.7373,.3038,13.3366,12.149,13.3366,12.149l-11.1339,12.5836s-10.4444-9.117-10.6234-15.219c-.1377-5.1572,2.404-9.9093,8.4207-9.5136Z" style="fill:#263238;"></path><path d="M258.64989,138.9859c4.7373,.3038,13.3366,12.149,13.3366,12.149l-11.1339,12.5836s-10.4444-9.117-10.6234-15.219c-.1377-5.1572,2.404-9.9093,8.4207-9.5136Z" style="fill:#fff; opacity:.5;"></path></g><g><path d="M224.445,93.713c-6.50281,2.6856-9.30971,7.8391-10.09381,11.8176-.4538,5.4921,.5744,9.6471,.8871,15.1342l20.9062-28.5323c-3.4437,.0048-4.7816-.9697-11.69949,1.5805Z" style="fill:#263238;"></path><path d="M232.12729,92.3477c6.0935-1.4908,10.8643,2.6352,13.5715,5.3823,2.8256,3.639,3.93721,8.344,3.0545,12.9285-.9231,4.2667-2.0419,9.4387-5.0968,11.1534-1.721,1.0026-3.7699,1.2429-5.646,.6626l-16.79049-23.6289c3.04249-3.048,6.79669-5.2846,10.90729-6.4979Z" style="fill:#263238;"></path><path d="M240.25889,127.5392c-.0014-.1633-.0144-.3263-.0385-.4874-.099-.7355-.42039-1.4181-.92039-1.9549-1.327-1.5045-3.62341-1.6163-5.12911-.2496l-.0041,.0037-5.8103,2.5833c-.0063,.0858-.0127,.1719-.0197,.2685l1.0513,8.5549c.1638,2.5455-2.7154,4.6385-4.3308,5.7601-.9705,.7504-2.9029,7.7062,3.5721,12.8559,1.9095,1.5291,4.8601-.9653,6.7759-2.6288,7.8882-7.5947,7.72171-14.598,7.72171-14.598-2.92191-2.6691-3.12451-4.4586-2.86811-10.1077Z" style="fill:#b97964;"></path><path d="M226.22689,126.9334c.0503-.0796,.0878-.1662,.11111-.2572h0l6.29989-.5822c1.8809-.7706,4.0007,.1131,4.7424,1.977,.2892,.5166,1.0194-3.136,.2565,1.6373l-.0117,.0747-8.32409,5.8526s-1.01241-6.9448-1.06-6.9669c-.04751-.0221-2.01411-1.7353-2.01411-1.7353Z" style="isolation:isolate; opacity:.2;"></path><path d="M245.33879,111.2843c-2.3544,9.8215-3.1314,14.0118-8.9549,18.4454-8.765,6.6547-20.0637,2.1801-20.677-8.0363-.4808-9.1842,3.39511-23.6828,13.63111-26.3777,10.23629-2.6949,18.34989,6.134,16.00079,15.9686Z" style="fill:#b97964;"></path><path d="M247.85849,120.594c-1.4537,1.9331-3.54849,3.0157-5.37249,3.2641-2.74331,.3736-3.55821-4.0624-2.30451-6.6314,1.1288-2.3125,3.9459-3.6138,6.4632-2.803,2.48,.7988,2.8762,3.9601,1.2138,6.1703Z" style="fill:#b97964;"></path><path d="M242.31494,119.68506c-.01611,0-.03271-.00146-.04932-.00488-.13525-.02686-.22314-.1582-.19629-.29395,.20068-1.01416,.80664-1.93457,1.66162-2.5249,.85547-.59131,1.92432-.82959,2.93896-.64893,.13574,.02393,.22656,.15332,.20264,.28955s-.15576,.22852-.28955,.20264c-.88232-.15381-1.81982,.05127-2.56787,.56787-.74902,.51709-1.2793,1.32324-1.45557,2.21143-.02344,.11865-.12793,.20117-.24463,.20117Z" style="opacity:.2;"></path><path d="M231.62789,112.9996c-.1876,1.0598-.8766,1.8704-1.5384,1.8108-.6617-.0595-1.0457-.9665-.858-2.026,.1876-1.0594,.8764-1.8703,1.5381-1.8107,.6618,.0594,1.046,.9663,.8583,2.0259Z" style="fill:#263238;"></path><path d="M221.73449,111.8721c-.1842,1.0264-.8684,1.8106-1.5281,1.7515-.6597-.0594-1.0453-.9393-.86139-1.9662,.18429-1.0262,.86839-1.8106,1.52829-1.7511,.65971,.0588,1.0453,.9392,.8612,1.9658Z" style="fill:#263238;"></path><path d="M234.20439,109.5223c-.1298,.0001-.2546-.0516-.342-.1543-1.35939-1.6074-3.1659-1.2963-3.1867-1.2926-.2679,.0466-.5099-.1286-.53469-.3992-.02421-.2703,.17579-.5292,.44739-.5797,.0944-.0166,2.3618-.4094,4.04861,1.586,.16809,.1988,.131,.5138-.08251,.7033-.1033,.0909-.2287,.1364-.3501,.1365Z" style="fill:#263238;"></path><path d="M219.06249,106.4515c-.0966-.0452-.171-.13-.2011-.2453-.0617-.2383,.0877-.5153,.3331-.6189,2.4621-1.039,4.0347,.1327,4.1007,.1843,.1861,.1427,.1976,.4338,.0253,.6508-.17149,.2166-.4616,.2765-.6479,.1351-.0609-.0468-1.2959-.9348-3.25359-.1082-.12671,.0532-.25441,.0502-.35651,.0022Z" style="fill:#263238;"></path><path d="M224.49049,111.6799s-2.0598,3.5939-4.1366,5.7462c-.36289,.3761-.2491,.9967,.2092,1.2278,1.17991,.5949,2.684,.3417,2.684,.3417l1.2434-7.3157Z" style="fill:#a24e3f;"></path><path d="M231.14189,111.0594l-2.2324-.8011s1.0358,1.8625,2.2324,.8011Z" style="fill:#263238;"></path><path d="M221.107,109.9562l-2.23241-.8012s1.0357,1.8624,2.23241,.8012Z" style="fill:#263238;"></path><path d="M223.30229,121.8312c.6161,1.0786,1.3088,3.1477,1.3088,3.1477,.2-.0326,.39991-.0653,.59791-.1083,2.70129-.5112,3.80319-1.6383,4.20519-2.7328,.2179-.5993,.2192-1.1951,.1579-1.669-.0653-.5488-.2374-.9227-.2374-.9227-1.2868,1.124-3.7724,1.794-5.1138,2.0963-.5604,.1326-.9186,.1888-.9186,.1888Z" style="fill:#263238;"></path><path d="M224.22089,121.6424l.4102,.9177c2.5432-.4876,4.2752-1.1712,4.941-2.0913-.0653-.5488-.2374-.9227-.2374-.9227-1.2868,1.124-3.7724,1.794-5.1138,2.0963Z" style="fill:#fff;"></path><path d="M225.209,124.8706c2.70129-.5112,3.80319-1.6383,4.20519-2.7328-.9143,.2095-1.9957,.5638-2.8987,1.1604-.692,.4536-1.07849,1.0248-1.30649,1.5724Z" style="fill:#de5753;"></path><path d="M241.41859,113.0161s-4.2175-7.5493-3.1993-13.0918c0,0-19.1024-8.4455-21.0166,9.3244,0,0-1.0821-15.9088,15.8469-15.1206,16.9289,.7882,15.658,22.9733,6.6033,29.0017-.0121-.0832,4.3633-5.3928,1.7657-10.1137Z" style="fill:#263238;"></path><path d="M225.12769,94.8073c-2.6083,1.6538-4.6386,4.0856-5.7965,6.9431-.4643,2.1462,2.1085,4.2734,2.1085,4.2734l4.5646-3.9777-.8895,4.1117c5.9557,.5098,9.9899-1.9276,12.9498-6.0128l-1.9844-6.4603s-8.6584-.1762-10.9525,1.1226Z" style="fill:#263238;"></path><path d="M289.25079,110.6903c-1.2896,1.2302-3.0592,1.8138-4.7427,1.564,1.44591-1.5307,2.0506-3.9758,1.5122-6.1145-5.6219,2.23-12.3288,5.0144-17.7131,2.1486-2.4676-1.3133-4.0585-4.1387-6.0318-6.247-1.9733-2.1082-4.12439-4.1847-6.7558-5.0154-2.6315-.8308-8.3402,1.3311-9.77259,3.9248l-.34481,5.1041c2.7176-.5167,6.9953,1.4629,8.1907,4.2281,1.1955,2.7653,2.2576,4.7647,3.74711,7.3472,1.88609,3.2699,3.74269,5.3347,6.94589,6.7631,1.4627,.6523,4.7817,1.3656,9.7115,1.0474,3.9092-.2524,7.9258-1.102,11.1749-3.5278,3.2491-2.4256,5.4474-7.1432,4.0785-11.2226Z" style="fill:#263238;"></path></g></g></g></svg>
